# Blender v2.93.4 OBJ File: ''
# www.blender.org
mtllib slow.mtl
o Cube
v 1.000000 -1.000000 -1.000000
v 1.000000 -1.000000 1.000000
v -1.000000 -1.000000 -1.000000
v -1.000000 -1.000000 1.000000
v 0.437408 1.000000 -0.437408
v 1.000000 0.437408 -1.000000
v 0.437408 1.000000 0.437408
v 1.000000 0.437408 1.000000
v -0.437408 1.000000 -0.437408
v -1.000000 0.437408 -1.000000
v -0.437408 1.000000 0.437408
v -1.000000 0.437408 1.000000
vt 1.000000 0.820544
vt 0.705136 0.820544
vt 0.705136 0.410272
vt 1.000000 0.410272
vt 0.705136 0.410272
vt 0.410272 0.410272
vt 0.410272 0.000000
vt 0.705136 0.000000
vt 0.000000 0.000000
vt 0.410272 0.000000
vt 0.410272 0.410272
vt 0.000000 0.410272
vt 0.115408 0.525680
vt 0.294864 0.525680
vt 0.294864 0.705136
vt 0.115408 0.705136
vt 0.705136 0.820544
vt 0.410272 0.820544
vt 0.410272 0.410272
vt 0.705136 0.410272
vt 0.410272 0.820544
vt 0.000000 0.820544
vt 0.000000 0.410272
vt 0.410272 0.410272
vt 1.000000 0.410272
vt 0.705136 0.410272
vt 0.705136 0.000000
vt 1.000000 0.000000
vn 0.0000 0.0000 1.0000
vn -1.0000 0.0000 0.0000
vn 0.0000 -1.0000 0.0000
vn 0.0000 1.0000 0.0000
vn 1.0000 0.0000 0.0000
vn 0.0000 0.7071 0.7071
vn 0.7071 0.7071 0.0000
vn -0.7071 0.7071 0.0000
vn 0.0000 0.7071 -0.7071
vn 0.0000 0.0000 -1.0000
usemtl Material
s off
f 2/1/1 8/2/1 12/3/1 4/4/1
f 4/5/2 12/6/2 10/7/2 3/8/2
f 3/9/3 1/10/3 2/11/3 4/12/3
f 5/13/4 9/14/4 11/15/4 7/16/4
f 1/17/5 6/18/5 8/19/5 2/20/5
f 7/16/6 11/15/6 12/21/6 8/22/6
f 5/13/7 7/16/7 8/22/7 6/23/7
f 11/15/8 9/14/8 10/24/8 12/21/8
f 9/14/9 5/13/9 6/23/9 10/24/9
f 3/25/10 10/26/10 6/27/10 1/28/10
